<?xml version="1.0" encoding="UTF-8" standalone="no"?>
<!DOCTYPE svg PUBLIC "-//W3C//DTD SVG 1.1//EN"
"http://www.w3.org/Graphics/SVG/1.1/DTD/svg11.dtd">
<svg viewBox="0 0 2200 1237" version="1.1" xmlns="http://www.w3.org/2000/svg" xmlns:xlink="http://www.w3.org/1999/xlink">
<defs>
<clipPath id="c0_6"><path d="M273.6 759.4H238.7V709.6h34.9v49.8Z"/></clipPath>
<clipPath id="c1_6"><path d="M595 603.6V554.9h35v48.7H595Z"/></clipPath>
<clipPath id="c2_6"><path d="M454.7 840.8H420.8V791l.3 -.2l33.6 .2v49.8Z"/></clipPath>
<clipPath id="c3_6"><path d="M422.6 582.9h-35V533.1l.3 -.1l34.7 .1v49.8Z"/></clipPath>
<clipPath id="c4_6"><path d="M497 665.4H462.1V615.6H497v49.8Z"/></clipPath>
<clipPath id="c5_6"><path d="M446.1 454.6V404.8H481v49.8H446.1Z"/></clipPath>
<clipPath id="c6_6"><path d="M697 413.4V363.6h34.9v49.8H697Z"/></clipPath>
<clipPath id="c7_6"><path d="M687.2 703.3H652.3V653.5h34.9v49.8Z"/></clipPath>
<clipPath id="c8_6"><path d="M823.6 687.2H788.7V637.4h34.9v49.8Z"/></clipPath>
<clipPath id="c9_6"><path d="M730.2 549.7V501h35v48.7h-35Z"/></clipPath>
<clipPath id="ca_6"><path d="M360.7 671.2h-35V621.4h35v49.8Z"/></clipPath>
<clipPath id="cb_6"><path d="M506.2 772H471.3V722.2h34.9V772Z"/></clipPath>
<clipPath id="cc_6"><path d="M370.4 754.8V706.1h33.8v48.7H370.4Z"/></clipPath>
<clipPath id="cd_6"><path d="M615.1 498.2H581.2V448.3h33.9v49.9Z"/></clipPath>
<clipPath id="ce_6"><path d="M541.7 505H506.8V455.2h34.9V505Z"/></clipPath>
<clipPath id="cf_6"><path d="M756 651.7H722.2V601.9H756v49.8Z"/></clipPath>
<clipPath id="cg_6"><path d="M336.6 548.6H301.7V498.8h34.9v49.8Z"/></clipPath>
<clipPath id="ch_6"><path d="M-.2 1237.8V-.2H2200.3v1238Z"/></clipPath>
<clipPath id="ci_6"><path d="M39.8 941.1V225.4h954V941.1Z"/></clipPath>
<clipPath id="cj_6"><path d="M238 760V708.9h36.2V760Z"/></clipPath>
<clipPath id="ck_6"><path d="M594.4 604.2V554.3h36.1v49.9Z"/></clipPath>
<clipPath id="cl_6"><path d="M420.2 841.4V790.3h35v51.1Z"/></clipPath>
<clipPath id="cm_6"><path d="M387 583.6V532.5h36.1v51.1Z"/></clipPath>
<clipPath id="cn_6"><path d="M461.4 666.1V615h36.2v51.1Z"/></clipPath>
<clipPath id="co_6"><path d="M445.4 455.2v-51h36.2v51Z"/></clipPath>
<clipPath id="cp_6"><path d="M696.3 414V362.9h36.2V414Z"/></clipPath>
<clipPath id="cq_6"><path d="M651.7 703.9V652.8h36.1v51.1Z"/></clipPath>
<clipPath id="cr_6"><path d="M788 687.8v-51h36.2v51Z"/></clipPath>
<clipPath id="cs_6"><path d="M729.6 550.3V500.4h36.1v49.9Z"/></clipPath>
<clipPath id="ct_6"><path d="M325.1 671.8V620.7h36.2v51.1Z"/></clipPath>
<clipPath id="cu_6"><path d="M470.6 772.6v-51h36.2v51Z"/></clipPath>
<clipPath id="cv_6"><path d="M369.8 755.4V705.5h35v49.9Z"/></clipPath>
<clipPath id="cw_6"><path d="M580.6 498.8V447.7h35v51.1Z"/></clipPath>
<clipPath id="cx_6"><path d="M506.1 505.6v-51h36.2v51Z"/></clipPath>
<clipPath id="cy_6"><path d="M721.6 652.3V601.2h35v51.1Z"/></clipPath>
<clipPath id="cz_6"><path d="M827 945.6V864.8H993.8v80.8Z"/></clipPath>
<clipPath id="c10_6"><path d="M301 549.2V498.1h36.2v51.1Z"/></clipPath>
<style type="text/css"><![CDATA[
.g0_6{
fill: #FFF;
}
.g1_6{
fill: #17726D;
}
.g2_6{
fill: none;
stroke: #EAE4D2;
stroke-width: 9.166;
stroke-linejoin: round;
}
.g3_6{
fill: #B2B08F;
}
]]></style>
</defs>
<g clip-path="url(#ch_6)">
<path fill-rule="evenodd" d="M0 1237.5H2200V0H0V1237.5Z" class="g0_6"/>
<path fill-rule="evenodd" d="M0 1237.5H1081.7V0H0V1237.5Z" class="g1_6"/>
</g>
<path d="M100.8 291H324.3" class="g2_6"/>
<path fill-rule="evenodd" d="M1173.9 65.3h940.7c9 0 17.6 2.9 23.9 7.9c6.4 5.1 9.9 11.9 9.9 19v12.7c0 14.8 -15.1 26.9 -33.8 26.9H1173.9c-8.9 0 -17.5 -2.9 -23.9 -7.9c-6.3 -5.1 -9.9 -11.9 -9.9 -19V92.2c0 -14.8 15.2 -26.9 33.8 -26.9Z" class="g1_6"/>
<image clip-path="url(#ci_6)" preserveAspectRatio="none" x="40" y="226" width="953" height="715" xlink:href="img/1.png"/>
<g clip-path="url(#cj_6)">
<path clip-path="url(#c0_6)" d="M256.1 709.9c-9.4 0 -17.1 7.7 -17.1 17.2c0 12.9 17.1 32 17.1 32c0 0 17.2 -19.1 17.2 -32c0 -9.5 -7.7 -17.2 -17.2 -17.2Zm0 23.4c-3.4 0 -6.1 -2.8 -6.1 -6.2c0 -3.4 2.7 -6.1 6.1 -6.1c3.4 0 6.2 2.7 6.2 6.1c0 3.4 -2.8 6.2 -6.2 6.2Z" class="g3_6"/>
</g>
<g clip-path="url(#ck_6)">
<path clip-path="url(#c1_6)" d="M612.5 555.2c-9.5 0 -17.2 7.6 -17.2 16.8c0 12.6 17.2 31.3 17.2 31.3c0 0 17.1 -18.7 17.1 -31.3c0 -9.2 -7.6 -16.8 -17.1 -16.8Zm0 22.8c-3.4 0 -6.1 -2.7 -6.1 -6c0 -3.3 2.7 -6 6.1 -6c3.4 0 6.1 2.7 6.1 6c0 3.3 -2.7 6 -6.1 6Z" class="g3_6"/>
</g>
<g clip-path="url(#cl_6)">
<path clip-path="url(#c2_6)" d="M437.7 791.3c-9.1 0 -16.6 7.7 -16.6 17.2c0 12.9 16.6 31.9 16.6 31.9c0 0 16.6 -19 16.6 -31.9c0 -9.5 -7.4 -17.2 -16.6 -17.2Zm0 23.3c-3.2 0 -5.9 -2.7 -5.9 -6.1c0 -3.4 2.7 -6.2 5.9 -6.2c3.3 0 6 2.8 6 6.2c0 3.4 -2.7 6.1 -6 6.1Z" class="g3_6"/>
</g>
<g clip-path="url(#cm_6)">
<path clip-path="url(#c3_6)" d="M405.1 533.5c-9.5 0 -17.2 7.7 -17.2 17.2c0 12.9 17.2 31.9 17.2 31.9c0 0 17.1 -19 17.1 -31.9c0 -9.5 -7.6 -17.2 -17.1 -17.2Zm0 23.3c-3.4 0 -6.1 -2.7 -6.1 -6.1c0 -3.4 2.7 -6.2 6.1 -6.2c3.4 0 6.1 2.8 6.1 6.2c0 3.4 -2.7 6.1 -6.1 6.1Z" class="g3_6"/>
</g>
<g clip-path="url(#cn_6)">
<path clip-path="url(#c4_6)" d="M479.6 616c-9.5 0 -17.2 7.7 -17.2 17.2c0 12.9 17.2 31.9 17.2 31.9c0 0 17.1 -19 17.1 -31.9C496.7 623.7 489 616 479.6 616Zm0 23.3c-3.4 0 -6.2 -2.7 -6.2 -6.1c0 -3.4 2.8 -6.2 6.2 -6.2c3.3 0 6.1 2.8 6.1 6.2c0 3.4 -2.8 6.1 -6.1 6.1Z" class="g3_6"/>
</g>
<g clip-path="url(#co_6)">
<path clip-path="url(#c5_6)" d="M463.5 405.1c-9.4 0 -17.1 7.7 -17.1 17.2c0 12.9 17.1 32 17.1 32c0 0 17.2 -19.1 17.2 -32c0 -9.5 -7.7 -17.2 -17.2 -17.2Zm0 23.4c-3.4 0 -6.1 -2.8 -6.1 -6.2c0 -3.4 2.7 -6.1 6.1 -6.1c3.4 0 6.2 2.7 6.2 6.1c0 3.4 -2.8 6.2 -6.2 6.2Z" class="g3_6"/>
</g>
<g clip-path="url(#cp_6)">
<path clip-path="url(#c6_6)" d="M714.5 363.9c-9.5 0 -17.2 7.7 -17.2 17.2c0 12.9 17.2 31.9 17.2 31.9c0 0 17.1 -19 17.1 -31.9c0 -9.5 -7.7 -17.2 -17.1 -17.2Zm0 23.3c-3.4 0 -6.2 -2.7 -6.2 -6.1c0 -3.4 2.8 -6.2 6.2 -6.2c3.3 0 6.1 2.8 6.1 6.2c0 3.4 -2.8 6.1 -6.1 6.1Z" class="g3_6"/>
</g>
<g clip-path="url(#cq_6)">
<path clip-path="url(#c7_6)" d="M669.8 653.8c-9.5 0 -17.2 7.7 -17.2 17.2c0 12.9 17.2 31.9 17.2 31.9c0 0 17.1 -19 17.1 -31.9c0 -9.5 -7.7 -17.2 -17.1 -17.2Zm0 23.3c-3.4 0 -6.1 -2.7 -6.1 -6.1c0 -3.4 2.7 -6.2 6.1 -6.2c3.4 0 6.1 2.8 6.1 6.2c0 3.4 -2.7 6.1 -6.1 6.1Z" class="g3_6"/>
</g>
<g clip-path="url(#cr_6)">
<path clip-path="url(#c8_6)" d="M806.1 637.7c-9.4 0 -17.1 7.7 -17.1 17.2c0 12.9 17.1 32 17.1 32c0 0 17.2 -19.1 17.2 -32c0 -9.5 -7.7 -17.2 -17.2 -17.2Zm0 23.4c-3.4 0 -6.1 -2.8 -6.1 -6.2c0 -3.4 2.7 -6.1 6.1 -6.1c3.4 0 6.2 2.7 6.2 6.1c0 3.4 -2.8 6.2 -6.2 6.2Z" class="g3_6"/>
</g>
<g clip-path="url(#cs_6)">
<path clip-path="url(#c9_6)" d="M747.7 501.4c-9.5 0 -17.2 7.5 -17.2 16.8c0 12.6 17.2 31.2 17.2 31.2c0 0 17.1 -18.6 17.1 -31.2c0 -9.3 -7.6 -16.8 -17.1 -16.8Zm0 22.8c-3.4 0 -6.1 -2.7 -6.1 -6c0 -3.3 2.7 -6 6.1 -6c3.4 0 6.1 2.7 6.1 6c0 3.3 -2.7 6 -6.1 6Z" class="g3_6"/>
</g>
<g clip-path="url(#ct_6)">
<path clip-path="url(#ca_6)" d="M343.2 621.7c-9.5 0 -17.1 7.7 -17.1 17.2c0 12.9 17.1 31.9 17.1 31.9c0 0 17.2 -19 17.2 -31.9c0 -9.5 -7.7 -17.2 -17.2 -17.2Zm0 23.3c-3.4 0 -6.1 -2.7 -6.1 -6.1c0 -3.4 2.7 -6.1 6.1 -6.1c3.4 0 6.1 2.7 6.1 6.1c0 3.4 -2.7 6.1 -6.1 6.1Z" class="g3_6"/>
</g>
<g clip-path="url(#cu_6)">
<path clip-path="url(#cb_6)" d="M488.7 722.5c-9.4 0 -17.1 7.7 -17.1 17.2c0 12.9 17.1 32 17.1 32c0 0 17.2 -19.1 17.2 -32c0 -9.5 -7.7 -17.2 -17.2 -17.2Zm0 23.4c-3.3 0 -6.1 -2.8 -6.1 -6.2c0 -3.4 2.8 -6.1 6.1 -6.1c3.4 0 6.2 2.7 6.2 6.1c0 3.4 -2.8 6.2 -6.2 6.2Z" class="g3_6"/>
</g>
<g clip-path="url(#cv_6)">
<path clip-path="url(#cc_6)" d="M387.3 706.5c-9.1 0 -16.6 7.5 -16.6 16.8c0 12.6 16.6 31.2 16.6 31.2c0 0 16.6 -18.6 16.6 -31.2c0 -9.3 -7.4 -16.8 -16.6 -16.8Zm0 22.8c-3.2 0 -5.9 -2.7 -5.9 -6c0 -3.3 2.7 -6 5.9 -6c3.3 0 6 2.7 6 6c0 3.3 -2.7 6 -6 6Z" class="g3_6"/>
</g>
<g clip-path="url(#cw_6)">
<path clip-path="url(#cd_6)" d="M598.2 448.7c-9.2 0 -16.6 7.7 -16.6 17.2c0 12.9 16.6 31.9 16.6 31.9c0 0 16.6 -19 16.6 -31.9c0 -9.5 -7.5 -17.2 -16.6 -17.2Zm0 23.3c-3.3 0 -6 -2.7 -6 -6.1c0 -3.4 2.7 -6.2 6 -6.2c3.2 0 5.9 2.8 5.9 6.2c0 3.4 -2.7 6.1 -5.9 6.1Z" class="g3_6"/>
</g>
<g clip-path="url(#cx_6)">
<path clip-path="url(#ce_6)" d="M524.3 455.5c-9.5 0 -17.2 7.8 -17.2 17.3c0 12.9 17.2 31.9 17.2 31.9c0 0 17.1 -19 17.1 -31.9c0 -9.5 -7.7 -17.3 -17.1 -17.3Zm0 23.4c-3.4 0 -6.2 -2.8 -6.2 -6.1c0 -3.4 2.8 -6.2 6.2 -6.2c3.3 0 6.1 2.8 6.1 6.2c0 3.3 -2.8 6.1 -6.1 6.1Z" class="g3_6"/>
</g>
<g clip-path="url(#cy_6)">
<path clip-path="url(#cf_6)" d="M739.1 602.2c-9.2 0 -16.6 7.7 -16.6 17.2c0 12.9 16.6 32 16.6 32c0 0 16.6 -19.1 16.6 -32c0 -9.5 -7.4 -17.2 -16.6 -17.2Zm0 23.4c-3.3 0 -5.9 -2.8 -5.9 -6.2c0 -3.4 2.6 -6.1 5.9 -6.1c3.3 0 5.9 2.7 5.9 6.1c0 3.4 -2.6 6.2 -5.9 6.2Z" class="g3_6"/>
</g>
<image clip-path="url(#cz_6)" preserveAspectRatio="none" x="827" y="865" width="166" height="80" xlink:href="img/2.jpg"/>
<g clip-path="url(#c10_6)">
<path clip-path="url(#cg_6)" d="M319.2 499.1c-9.5 0 -17.2 7.7 -17.2 17.2c0 12.9 17.2 31.9 17.2 31.9c0 0 17.1 -19 17.1 -31.9c0 -9.5 -7.7 -17.2 -17.1 -17.2Zm0 23.3c-3.4 0 -6.2 -2.7 -6.2 -6.1c0 -3.4 2.8 -6.2 6.2 -6.2c3.3 0 6.1 2.8 6.1 6.2c0 3.4 -2.8 6.1 -6.1 6.1Z" class="g3_6"/>
</g>
<path fill-rule="evenodd" d="M1173.9 382.7h940.7c9 0 17.6 2.8 23.9 7.9c6.4 5 9.9 11.9 9.9 19v12.6c0 14.9 -15.1 27 -33.8 27H1173.9c-8.9 0 -17.5 -2.9 -23.9 -7.9c-6.3 -5.1 -9.9 -11.9 -9.9 -19.1V409.6c0 -14.8 15.2 -26.9 33.8 -26.9Z" class="g1_6"/>
<path fill-rule="evenodd" d="M1177.4 669.2H2118c9 0 17.6 2.8 24 7.9c6.3 5 9.9 11.9 9.9 19v12.6c0 14.9 -15.2 26.9 -33.9 26.9H1177.4c-9 0 -17.6 -2.8 -23.9 -7.9c-6.4 -5 -10 -11.9 -10 -19V696.1c0 -14.9 15.2 -26.9 33.9 -26.9Z" class="g1_6"/>
<path fill-rule="evenodd" d="M1177.4 933.9H2118c9 0 17.6 2.8 24 7.8c6.3 5.1 9.9 11.9 9.9 19.1v12.6c0 14.9 -15.2 26.9 -33.9 26.9H1177.4c-9 0 -17.6 -2.8 -23.9 -7.9c-6.4 -5 -10 -11.9 -10 -19V960.8c0 -14.9 15.2 -26.9 33.9 -26.9Z" class="g1_6"/>
</svg>