<?xml version="1.0" encoding="UTF-8" standalone="no"?>
<!DOCTYPE svg PUBLIC "-//W3C//DTD SVG 1.1//EN"
"http://www.w3.org/Graphics/SVG/1.1/DTD/svg11.dtd">
<svg viewBox="0 0 2200 1237" version="1.1" xmlns="http://www.w3.org/2000/svg" xmlns:xlink="http://www.w3.org/1999/xlink">
<defs>
<clipPath id="c0_7"><path d="M-.2 1237.8V-.2H2200.3v1238Z"/></clipPath>
<clipPath id="c1_7"><path d="M-.2 1237.8V-.2H2200.3v1238H-.2Z"/></clipPath>
<clipPath id="c2_7"><path d="M19.2 427.7V341.1h86.5v86.6Z"/></clipPath>
<clipPath id="c3_7"><path d="M375.5 426.6V340h86.6v86.6Z"/></clipPath>
<clipPath id="c4_7"><path d="M697.5 404.8V354.9H912.4v49.9Z"/></clipPath>
<clipPath id="c5_7"><path d="M1060.7 403.7V352.6h214.9v51.1Z"/></clipPath>
<style type="text/css"><![CDATA[
.g0_7{
fill: #FFF;
}
.g1_7{
fill: none;
stroke: #000;
stroke-width: 4.583;
stroke-linejoin: round;
}
.g2_7{
fill: #0E4714;
}
.g3_7{
fill: #17726D;
}
]]></style>
</defs>
<g clip-path="url(#c0_7)">
<path fill-rule="evenodd" d="M0 1237.5H2200V0H0V1237.5Z" class="g0_7"/>
<path d="M-1 497.3H2178.2" class="g1_7"/>
</g>
<path clip-path="url(#c1_7)" fill-rule="evenodd" d="M2190.8 497.9l-18.3 15.4V482.4l18.3 15.5Z" class="g2_7"/>
<path d="M58.4 532.8V433.1m359.8 99.7V433.1m370.1 99.7V433.1m377 99.7V433.1m375.8 99.7V433.1m382.8 99.7V433.1" class="g1_7"/>
<image clip-path="url(#c2_7)" preserveAspectRatio="none" x="19" y="341" width="86" height="86" xlink:href="img/1.jpg"/>
<image clip-path="url(#c3_7)" preserveAspectRatio="none" x="376" y="340" width="86" height="86" xlink:href="img/2.jpg"/>
<image clip-path="url(#c4_7)" preserveAspectRatio="none" x="698" y="355" width="214" height="49" xlink:href="img/3.jpg"/>
<path fill-rule="evenodd" d="M0 234.9H2200V55H0V234.9Z" class="g3_7"/>
<path fill-rule="evenodd" d="M1435.7 359.8h190.8l23.5 23.5l-23.5 23.5H1435.7Z" class="g3_7"/>
<path fill-rule="evenodd" d="M1826.5 365.5h191.3l22.9 22.9l-22.9 23H1826.5Z" class="g3_7"/>
<image clip-path="url(#c5_7)" preserveAspectRatio="none" x="1061" y="353" width="214" height="50" xlink:href="img/4.jpg"/>
</svg>