<?xml version="1.0" encoding="UTF-8" standalone="no"?>
<!DOCTYPE svg PUBLIC "-//W3C//DTD SVG 1.1//EN"
"http://www.w3.org/Graphics/SVG/1.1/DTD/svg11.dtd">
<svg viewBox="0 0 2200 1237" version="1.1" xmlns="http://www.w3.org/2000/svg" xmlns:xlink="http://www.w3.org/1999/xlink">
<defs>
<clipPath id="c0_2"><path d="M-.2 1237.8V-.2H2200.3v1238Z"/></clipPath>
<style type="text/css"><![CDATA[
.g0_2{
fill: #FFF;
}
.g1_2{
fill: none;
stroke: #F6F6F6;
stroke-width: 114.583;
stroke-linecap: square;
stroke-miterlimit: 10;
}
.g2_2{
fill: #17726D;
}
.g3_2{
fill: #EAE4D2;
}
.g4_2{
fill: none;
stroke: #EAE4D2;
stroke-width: 9.166;
stroke-linejoin: round;
}
]]></style>
</defs>
<g clip-path="url(#c0_2)">
<path fill-rule="evenodd" d="M0 1237.5H2200V0H0V1237.5Z" class="g0_2"/>
<path d="M1423.7 531.7c-179.4 0 -324.8 145.4 -324.8 324.8c0 179.4 145.4 324.9 324.8 324.9c179.4 0 324.8 -145.5 324.8 -324.9c0 -179.4 -145.4 -324.8 -324.8 -324.8Z" class="g1_2"/>
<path fill-rule="evenodd" d="M1441.5 1237.5H2200V0H1441.5V1237.5Z" class="g2_2"/>
</g>
<path fill-rule="evenodd" d="M1840.8 399.9c-88.3 0 -159.9 71.8 -159.9 160.4c0 88.6 71.6 160.4 159.9 160.4c88.3 0 159.8 -71.8 159.8 -160.4c0 -88.6 -71.5 -160.4 -159.8 -160.4Z" class="g3_2"/>
<path fill-rule="evenodd" d="M154.7 398.8c-32.3 0 -58.4 26.6 -58.4 59.5c0 32.9 26.1 59.6 58.4 59.6c32.3 0 58.4 -26.7 58.4 -59.6c0 -32.9 -26.1 -59.5 -58.4 -59.5Z" class="g3_2"/>
<path fill-rule="evenodd" d="M795.2 398.8c-32.3 0 -58.4 26.6 -58.4 59.5c0 32.9 26.1 59.6 58.4 59.6c32.3 0 58.4 -26.7 58.4 -59.6c0 -32.9 -26.1 -59.5 -58.4 -59.5Z" class="g3_2"/>
<path fill-rule="evenodd" d="M154.7 570.6c-32.3 0 -58.4 26.4 -58.4 59c0 32.6 26.1 59 58.4 59c32.3 0 58.4 -26.4 58.4 -59c0 -32.6 -26.1 -59 -58.4 -59Z" class="g3_2"/>
<path fill-rule="evenodd" d="M795.2 570.6c-32.3 0 -58.4 26.4 -58.4 59c0 32.6 26.1 59 58.4 59c32.3 0 58.4 -26.4 58.4 -59c0 -32.6 -26.1 -59 -58.4 -59Z" class="g3_2"/>
<path fill-rule="evenodd" d="M154.7 741.4c-32.3 0 -58.4 26.6 -58.4 59.5c0 32.9 26.1 59.6 58.4 59.6c32.3 0 58.4 -26.7 58.4 -59.6C213.1 768 187 741.4 154.7 741.4Z" class="g3_2"/>
<path fill-rule="evenodd" d="M795.2 741.4c-32.3 0 -58.4 26.6 -58.4 59.5c0 32.9 26.1 59.6 58.4 59.6c32.3 0 58.4 -26.7 58.4 -59.6c0 -32.9 -26.1 -59.5 -58.4 -59.5Z" class="g3_2"/>
<path d="M96.3 261.3h723" class="g4_2"/>
<path fill-rule="evenodd" d="M163.9 913.2c-32.3 0 -58.5 26.7 -58.5 59.6c0 32.9 26.2 59.6 58.5 59.6c32.2 0 58.4 -26.7 58.4 -59.6c0 -32.9 -26.2 -59.6 -58.4 -59.6Z" class="g3_2"/>
<path fill-rule="evenodd" d="M163.9 1082.8c-32.3 0 -58.5 26.7 -58.5 59.6c0 32.9 26.2 59.6 58.5 59.6c32.2 0 58.4 -26.7 58.4 -59.6c0 -32.9 -26.2 -59.6 -58.4 -59.6Z" class="g3_2"/>
<path fill-rule="evenodd" d="M795.2 914.4c-32.3 0 -58.4 26.7 -58.4 59.6c0 32.9 26.1 59.5 58.4 59.5c32.3 0 58.4 -26.6 58.4 -59.5c0 -32.9 -26.1 -59.6 -58.4 -59.6Z" class="g3_2"/>
</svg>